<?xml version="1.0" encoding="UTF-8" standalone="no"?>
<!-- Created with Inkscape (http://www.inkscape.org/) -->

<svg
   version="1.1"
   id="svg2"
   width="741.34705"
   height="741.34705"
   viewBox="0 0 741.34705 741.34705"
   sodipodi:docname="SHARC_favicon.svg"
   inkscape:version="1.1.1 (3bf5ae0d25, 2021-09-20)"
   xmlns:inkscape="http://www.inkscape.org/namespaces/inkscape"
   xmlns:sodipodi="http://sodipodi.sourceforge.net/DTD/sodipodi-0.dtd"
   xmlns="http://www.w3.org/2000/svg"
   xmlns:svg="http://www.w3.org/2000/svg">
  <defs
     id="defs6" />
  <sodipodi:namedview
     id="namedview4"
     pagecolor="#ffffff"
     bordercolor="#666666"
     borderopacity="1.0"
     inkscape:pageshadow="2"
     inkscape:pageopacity="0.0"
     inkscape:pagecheckerboard="false"
     showgrid="false"
     inkscape:zoom="0.51262625"
     inkscape:cx="-168.73892"
     inkscape:cy="434.03942"
     inkscape:window-width="1920"
     inkscape:window-height="1001"
     inkscape:window-x="-9"
     inkscape:window-y="-9"
     inkscape:window-maximized="1"
     inkscape:current-layer="g12"
     inkscape:snap-to-guides="true"
     showguides="true"
     inkscape:guide-bbox="true"
     inkscape:snap-text-baseline="true"
     fit-margin-top="0"
     fit-margin-left="0"
     fit-margin-right="0"
     fit-margin-bottom="0" />
  <g
     inkscape:groupmode="layer"
     inkscape:label="Image"
     id="g8"
     transform="translate(-48.066747,-73.231522)">
    <g
       id="g12">
      <path
         id="path14"
         style="fill:#283743"
         d="m 50.808277,228.48052 c -4.6557,0 -3.2087,1.89873 3.0293,3.97461 7.4054,2.46435 12.9382,6.20196 19.8789,13.4297 18.75835,19.53413 42.649043,72.55634 53.636773,119.03712 5.0435,21.33524 7.17368,37.52569 7.76758,59.05859 0.88094,31.93989 -2.24774,56.05868 -9.24023,71.25 -1.83542,3.9875 -2.9736,7.25 -2.5293,7.25 2.56598,0 21.91944,-10.10899 35.0625,-18.31445 3.575,-2.23195 11.0477,-8.47351 16.60547,-13.8711 11.90863,-11.56541 13.29449,-11.97117 19.0332,-5.56445 2.09378,2.3375 11.01888,11.46 19.83399,20.27148 18.00701,17.9996 29.9658,26.77299 49.02734,35.97071 18.80295,9.07294 40.94998,14.94219 61.01562,16.16992 5.68924,0.3481 10.93804,1.00029 11.66407,1.44922 3.95387,2.44479 -29.90296,52.71195 -50.53907,75.03515 -16.74801,18.11723 -29.51786,28.55844 -48.84179,39.9375 -7.67976,4.5223 -9.65374,6.60213 -5.19727,5.47266 1.59453,-0.40413 5.56993,-1.16751 8.83594,-1.69726 12.88436,-2.08993 44.3771,-11.28788 59.97656,-17.51758 28.82011,-11.5094 65.06432,-32.1142 95.08594,-54.05469 9.12495,-6.66872 15.96587,-12.17267 29.5,-23.73633 13.97379,-11.93931 14.54647,-12.30666 20.26953,-13.01953 26.6584,-3.3206 96.1825,-20.84594 125.4707,-31.62695 l 6.24024,-2.29688 2.91797,2.79492 c 3.88206,3.71925 14.11277,20.17439 18.65429,30.00391 9.89901,21.42511 13.94813,39.99243 16.97657,77.83008 2.09847,26.21847 2.92134,29.41342 3.94336,15.30664 1.35866,-18.75325 0.0271,-58.33144 -2.39063,-71.04297 -3.64657,-19.1718 -8.56327,-33.591 -17.50976,-51.35547 -2.03765,-4.04602 -3.48281,-7.93604 -3.21094,-8.64453 0.27187,-0.70848 3.56439,-2.30229 7.3164,-3.54102 12.1992,-4.02757 41.56628,-16.07662 52.32227,-21.46679 22.5163,-11.28363 32.84346,-22.79895 26,-28.99219 -2.80242,-2.53616 -2.5077,-4.54237 1.33398,-9.07031 1.83391,-2.1615 5.96399,-7.52969 9.17774,-11.92969 3.21374,-4.4 13.78053,-18.575 23.48047,-31.5 35.53414,-47.34864 44.63589,-61.19544 59.49219,-90.50002 7.97434,-15.72967 14.51562,-32.83671 14.51562,-37.96094 0,-8.14202 -5.98569,-13.52903 -15.03906,-13.53514 -6.58138,-0.004 -34.66164,5.37137 -54.9668,10.52342 -7.97223,2.02281 -16.09746,4.06393 -18.05664,4.53711 -7.01812,1.69501 -38.76732,10.92416 -56.4375,16.4043 -46.35028,14.37485 -92.27599,31.95278 -122.5,46.88868 -10.175,5.02821 -18.8144,9.14258 -19.19922,9.14258 -0.38482,0 -3.9663,-5.175 -7.95898,-11.5 -14.18768,-22.47543 -29.11423,-41.40945 -45.32813,-57.50001 -10.94934,-10.86605 -18.99797,-17.34772 -20.13281,-16.21289 -0.321,0.32099 3.43112,6.12523 8.33789,12.89844 17.71019,24.44679 39.94121,60.49623 49.43164,80.15627 l 2.33789,4.84179 -2.58008,2.15821 c -1.4185,1.18699 -6.14101,4.93992 -10.49414,8.33984 -13.21729,10.32306 -26.4494,22.40352 -33.59961,30.67383 -8.00727,9.26164 -15.35492,19.96503 -14.01367,20.41211 0.52166,0.17389 4.57239,-2.0663 9.00391,-4.97656 4.43152,-2.91027 10.90176,-7.06645 14.37695,-9.23633 3.47519,-2.16988 10.59336,-6.72347 15.81836,-10.11914 27.0855,-17.60254 42.1677,-26.25281 65.23047,-37.41407 31.07489,-15.03874 63.84215,-27.83741 111.76953,-43.65627 42.04592,-13.87763 116.72191,-33.97535 118.74023,-31.95703 2.04991,2.04991 -20.83487,43.59565 -38.88476,70.59182 -8.06074,12.05597 -10.82496,15.8897 -26.94336,37.38477 -4.07697,5.43694 -8.2799,11.06194 -9.33984,12.5 -9.05557,12.28607 -13.03187,17.11523 -14.09766,17.11523 -0.687,0 -4.14875,-1.35585 -7.69141,-3.01367 -19.79458,-9.263 -49.69619,-11.3265 -78.2832,-5.40039 -7.22616,1.49799 -21.1263,7.58773 -25.4668,11.15625 -2.1222,1.74476 -2.28065,2.25595 -1.125,3.64843 1.8841,2.2702 19.46373,7.64717 46.51758,14.23047 26.26836,6.39215 45.7546,12.31521 46.32227,14.08008 0.43352,1.34783 -7.19663,5.42472 -20.33008,10.86133 -9.13054,3.7796 -55.30572,19.9097 -68.41797,23.90039 -4.125,1.25544 -14.7,4.60915 -23.5,7.45313 -20.1768,6.52075 -28.77106,8.94828 -55.5,15.67187 -25.47417,6.40796 -31,7.33179 -31,5.18164 0,-0.81858 3.79455,-5.60515 8.43164,-10.63672 8.13965,-8.8321 15.44248,-19.59267 14.16406,-20.87109 -0.96897,-0.96897 -7.24146,2.31939 -17.63281,9.24609 -6.72866,4.48521 -13.34632,10.27757 -22.47461,19.67383 -22.4815,23.14147 -35.76712,36.148 -42.98828,42.08398 -11.90897,9.78952 -32.43706,24.93835 -45,33.20704 -6.6,4.344 -16.275,10.70869 -21.5,14.14453 -13.63418,8.96552 -42.10473,25.38877 -43.94141,25.34765 -0.88278,-0.0198 0.61121,-1.82283 3.44141,-4.15429 2.75,-2.2654 9.58216,-8.78314 15.18359,-14.48438 16.07571,-16.36214 30.67861,-36.88021 47.5586,-66.82617 12.74415,-22.60877 15.43208,-28.22417 14.13281,-29.52344 -0.71397,-0.71397 -4.73605,-0.68514 -12.95508,0.0957 -29.34532,2.78804 -65.41614,-4.19939 -89.41992,-17.32226 -10.52818,-5.75575 -21.44217,-13.16741 -28.66211,-19.46484 -7.98316,-6.96314 -22.68261,-22.061 -29.34375,-30.13868 -8.67944,-10.52519 -17.35549,-12.84 -26.46875,-7.06054 -2.67658,1.69744 -9.5928,7.77244 -15.36914,13.5 -5.77634,5.72759 -10.91237,10.41406 -11.41406,10.41406 -0.54294,0 -0.57537,-3.13704 -0.0781,-7.75 1.32827,-12.32357 0.98381,-53.56897 -0.5332,-63.75 -1.48372,-9.95762 -5.1951,-27.94657 -8.14844,-39.5 -3.05076,-11.93455 -14.19733,-41.5583 -19.88867,-52.85549 -2.86915,-5.69519 -5.01709,-10.55322 -4.77344,-10.79687 0.84088,-0.84088 8.3264,8.78739 14.34766,18.45507 8.36901,13.43722 21.9882,39.26247 28.58203,54.19729 13.67262,30.96807 16.766,38.22294 17.38867,40.77344 1.00402,4.11254 3.30777,6.5924 14.04297,15.12304 13.83595,10.99463 19.20662,14.48725 31.7832,20.66602 14.34057,7.04541 25.45576,10.12235 41.96289,11.61328 11.5909,1.04689 14.88535,0.97796 25.75196,-0.5332 27.58596,-3.83625 53.86037,-14.23285 80.64453,-31.91211 11.30988,-7.46525 12.4483,-9.91685 2.20508,-4.74609 -17.21798,8.69161 -42.13701,17.05797 -61.5293,20.6582 -7.34313,1.36328 -14.64952,1.85386 -27.5,1.8418 -15.12267,-0.0142 -18.72263,-0.33627 -26.5,-2.36915 -20.8814,-5.45807 -36.33054,-13.68144 -57.31641,-30.50781 -5.57423,-4.46939 -6.93139,-6.30267 -11.52734,-15.58594 -2.86474,-5.78644 -6.7709,-14.10986 -8.68164,-18.49609 -21.47032,-49.28649 -44.4599,-82.55082 -78.33011,-113.3379 -10.274403,-9.33912 -26.687703,-21.4247 -33.673853,-24.79493 -6.0445,-2.91594 -16.6917,-6.39258 -19.5762,-6.39258 z M 628.8513,340.67975 c -1.62809,0.29815 -3.17753,1.34159 -5.03711,3.20117 -2.63375,2.63375 -3.40039,4.22791 -3.40039,7.07617 0,7.73181 9.21448,12.28857 15.25,7.54103 4.98282,-3.91949 4.21016,-13.69499 -1.30859,-16.54884 -2.16929,-1.12179 -3.87582,-1.56768 -5.50391,-1.26953 z m -9.00781,90.83009 c 7.24374,0.0336 15.48776,0.39033 19.8789,1.04687 14.04721,2.10025 26.45993,6.92383 17.81641,6.92383 -1.58125,0 -4.16875,0.17349 -5.75,0.38477 -1.58125,0.21129 -4.225,0.20717 -5.875,-0.01 -1.65,-0.2166 -7.05,-1.06254 -12,-1.87891 -4.95,-0.81637 -12.15,-1.94472 -16,-2.50781 -10.53902,-1.54138 -12.57106,-2.06416 -11.94922,-3.07031 0.39205,-0.63435 6.63516,-0.92228 13.87891,-0.88867 z"
         sodipodi:nodetypes="sssssssssssssssssssssssccsssssssssssssscssssssssscccssssssssssssssssssssssssssssssssssssssssssscsssssssssssssssssssssssssssssssscsssss" />
    </g>
  </g>
</svg>
